<svg width="104" height="104" viewBox="0 0 104 104" fill="none" xmlns="http://www.w3.org/2000/svg">
<g clip-path="url(#clip0_0_26)">
<rect width="104" height="104" fill="white"/>
<rect x="9" y="9.06316" width="86" height="86" rx="20" fill="#FFF4DD"/>
<g filter="url(#filter0_dddd_0_26)">
<mask id="path-2-outside-1_0_26" maskUnits="userSpaceOnUse" x="12.9976" y="14.82" width="78" height="75" fill="black">
<rect fill="white" x="12.9976" y="14.82" width="78" height="75"/>
<path d="M21.3873 22.2086C26.3825 17.19 36.141 26.9221 41.3804 33.1784C44.6706 31.8601 48.1903 31.1645 51.7642 31.1647C55.553 31.165 59.4177 31.9786 63.0445 33.5407C68.2349 27.2968 78.1711 17.2642 83.2271 22.3434C86.8472 25.9805 80.7007 39.2287 78.7623 49.5856C80.0505 52.7946 80.8442 56.3852 80.9908 60.3297C81.144 62.3644 81.9809 63.6933 84.0347 64.487C84.3105 64.5944 84.443 65.8555 84.2056 66.0329C83.7622 66.3599 83.2968 66.7569 82.8277 67.196C83.1264 67.66 83.4683 68.0776 83.8619 68.4225C84.084 68.6184 83.9213 69.6513 83.6324 69.7155C82.9173 69.873 82.161 70.0977 81.442 70.402C81.5656 70.7535 81.7092 71.0769 81.8814 71.362C82.0343 71.6154 81.7286 72.2692 81.4488 72.1735C80.4005 71.8128 79.436 71.5266 78.7203 72.401C74.0885 81.2467 63.0808 83.7623 51.7642 83.7624C39.9073 83.7624 28.4209 81.8666 24.231 72.2702C23.5468 71.4623 22.5813 71.7332 21.5377 72.0475C21.2554 72.1321 21.0001 71.4933 21.1675 71.2506C21.3796 70.9432 21.5591 70.5842 21.7154 70.1881C20.9856 69.822 20.2111 69.543 19.481 69.3405C19.1971 69.261 19.0914 68.2546 19.3228 68.0719C19.7639 67.7247 20.1518 67.2896 20.4927 66.7965C20.019 66.2879 19.5473 65.8295 19.0972 65.4547C18.8711 65.2654 19.0626 64.0464 19.3423 63.9528C21.512 63.2372 22.4327 61.8782 22.6802 59.7145C23.0244 55.5249 24.0571 51.7032 25.6236 48.3131C23.479 38.1457 17.8986 25.7139 21.3873 22.2086Z"/>
</mask>
<path d="M21.3873 22.2086L17.1347 17.976L17.1345 17.9761L21.3873 22.2086ZM41.3804 33.1784L36.7805 37.0307L39.5737 40.366L43.612 38.7479L41.3804 33.1784ZM51.7642 31.1647L51.7647 25.1647H51.7646L51.7642 31.1647ZM63.0445 33.5407L60.6711 39.0513L64.791 40.8257L67.6585 37.3762L63.0445 33.5407ZM83.2271 22.3434L87.4797 18.1107L87.4794 18.1105L83.2271 22.3434ZM78.7623 49.5856L72.8647 48.4818L72.5432 50.1993L73.1942 51.8209L78.7623 49.5856ZM80.9908 60.3297L74.9949 60.5526L74.9992 60.6665L75.0077 60.7803L80.9908 60.3297ZM84.0347 64.487L86.2131 58.8964L86.2052 58.8933L86.1974 58.8903L84.0347 64.487ZM84.2056 66.0329L87.7671 70.8615L87.7819 70.8506L87.7967 70.8396L84.2056 66.0329ZM82.8277 67.196L78.7275 62.8155L75.0736 66.2356L77.7828 70.4438L82.8277 67.196ZM83.8619 68.4225L87.8295 63.9217L87.823 63.9159L87.8164 63.9101L83.8619 68.4225ZM83.6324 69.7155L84.9233 75.575L84.9331 75.5728L83.6324 69.7155ZM81.442 70.402L79.1033 64.8766L73.9107 67.0743L75.782 72.3933L81.442 70.402ZM81.8814 71.362L87.0188 68.2625L87.017 68.2594L81.8814 71.362ZM81.4488 72.1735L79.4967 77.8471L79.5074 77.8507L81.4488 72.1735ZM78.7203 72.401L74.0772 68.6008L73.6891 69.075L73.4049 69.6178L78.7203 72.401ZM51.7642 83.7624V89.7624H51.7642L51.7642 83.7624ZM24.231 72.2702L29.7298 69.8694L29.3779 69.0635L28.8095 68.3924L24.231 72.2702ZM21.5377 72.0475L23.2599 77.795L23.2678 77.7927L21.5377 72.0475ZM21.1675 71.2506L26.1064 74.6576L26.1069 74.6569L21.1675 71.2506ZM21.7154 70.1881L27.2967 72.3902L29.3105 67.2859L24.406 64.8253L21.7154 70.1881ZM19.481 69.3405L17.863 75.1182L17.8702 75.1202L17.8774 75.1222L19.481 69.3405ZM19.3228 68.0719L15.6113 63.3576L15.6049 63.3627L19.3228 68.0719ZM20.4927 66.7965L25.4275 70.2095L28.1734 66.2392L24.8831 62.707L20.4927 66.7965ZM19.0972 65.4547L15.2454 70.0551L15.2516 70.0603L15.2578 70.0655L19.0972 65.4547ZM19.3423 63.9528L17.463 58.2547L17.4507 58.2588L17.4384 58.2629L19.3423 63.9528ZM22.6802 59.7145L28.6413 60.3966L28.6522 60.3013L28.6601 60.2057L22.6802 59.7145ZM25.6236 48.3131L31.0702 50.83L31.9053 49.0228L31.4944 47.0748L25.6236 48.3131ZM21.3873 22.2086L25.6398 26.4413C25.2322 26.8509 24.6556 26.8015 24.8237 26.8316C25.288 26.9148 26.3045 27.3044 27.8653 28.3905C30.9222 30.5175 34.2642 34.0261 36.7805 37.0307L41.3804 33.1784L45.9804 29.326C43.2572 26.0744 39.1003 21.5888 34.7192 18.5404C32.5611 17.0387 29.8739 15.5453 26.9398 15.0197C23.7095 14.441 20.0399 15.0571 17.1347 17.976L21.3873 22.2086ZM41.3804 33.1784L43.612 38.7479C46.2072 37.7081 48.9702 37.1645 51.7638 37.1647L51.7642 31.1647L51.7646 25.1647C47.4103 25.1644 43.134 26.012 39.1488 27.6088L41.3804 33.1784ZM51.7642 31.1647L51.7638 37.1647C54.7026 37.1649 57.762 37.7984 60.6711 39.0513L63.0445 33.5407L65.4179 28.0301C61.0734 26.1589 56.4034 25.165 51.7647 25.1647L51.7642 31.1647ZM63.0445 33.5407L67.6585 37.3762C70.1502 34.3787 73.5304 30.7939 76.643 28.6C78.2334 27.479 79.2836 27.0619 79.7784 26.969C79.977 26.9316 79.3929 26.9964 78.9748 26.5763L83.2271 22.3434L87.4794 18.1105C84.5333 15.1508 80.8112 14.5649 77.5625 15.1753C74.6101 15.73 71.9038 17.259 69.7294 18.7917C65.3122 21.9052 61.1292 26.4588 58.4305 29.7052L63.0445 33.5407ZM83.2271 22.3434L78.9745 26.5761C77.9966 25.5936 78.4155 24.8316 78.337 26.3731C78.2725 27.6412 77.9191 29.4662 77.2751 31.9235C76.133 36.2816 73.8748 43.0849 72.8647 48.4818L78.7623 49.5856L84.6598 50.6894C85.5882 45.7294 87.3724 40.7302 88.8831 34.9656C89.5656 32.3616 90.1912 29.5453 90.3215 26.9828C90.438 24.6937 90.2677 20.9118 87.4797 18.1107L83.2271 22.3434ZM78.7623 49.5856L73.1942 51.8209C74.22 54.3762 74.8735 57.2849 74.9949 60.5526L80.9908 60.3297L86.9866 60.1069C86.8149 55.4855 85.881 51.213 84.3303 47.3503L78.7623 49.5856ZM80.9908 60.3297L75.0077 60.7803C75.1373 62.5006 75.5992 64.4975 76.9017 66.3388C78.2267 68.2118 80.0291 69.3715 81.8721 70.0837L84.0347 64.487L86.1974 58.8903C86.0778 58.8441 86.1154 58.8436 86.2358 58.9309C86.3677 59.0265 86.5402 59.1852 86.6984 59.4087C87.0306 59.8784 86.9975 60.1935 86.9738 59.8792L80.9908 60.3297ZM84.0347 64.487L81.8564 70.0776C80.2034 69.4335 79.3753 68.2667 79.112 67.8648C78.78 67.3581 78.6154 66.9242 78.5462 66.7257C78.4009 66.3095 78.3614 66.0087 78.3474 65.8785C78.3329 65.7443 78.3097 65.4585 78.3571 65.0464C78.3798 64.8491 78.4404 64.4223 78.631 63.8917C78.7769 63.4855 79.2689 62.2315 80.6146 61.2262L84.2056 66.0329L87.7967 70.8396C89.2017 69.7899 89.7415 68.4577 89.9245 67.9482C90.1522 67.3142 90.2393 66.759 90.2786 66.4168C90.3593 65.715 90.3303 65.074 90.2779 64.5889C90.2259 64.1078 90.1164 63.4605 89.8761 62.7721C89.7594 62.4375 89.541 61.8861 89.15 61.2891C88.8276 60.797 87.935 59.5673 86.2131 58.8964L84.0347 64.487ZM84.2056 66.0329L80.6442 61.2042C79.9622 61.7072 79.3144 62.2661 78.7275 62.8155L82.8277 67.196L86.9279 71.5764C87.2791 71.2477 87.5622 71.0127 87.7671 70.8615L84.2056 66.0329ZM82.8277 67.196L77.7828 70.4438C78.3164 71.2727 79.0082 72.1469 79.9074 72.9349L83.8619 68.4225L87.8164 63.9101C87.8743 63.9609 87.9043 63.9958 87.9104 64.0031C87.9162 64.01 87.9024 63.9943 87.8726 63.9481L82.8277 67.196ZM83.8619 68.4225L79.8942 72.9234C78.851 72.0038 78.4227 70.9729 78.2554 70.4877C78.0678 69.9436 78.0082 69.4951 77.9853 69.2447C77.9393 68.7419 77.982 68.3598 78.0223 68.1206C78.0602 67.8962 78.1525 67.4573 78.4147 66.9123C78.5449 66.6419 78.8133 66.1421 79.2983 65.6095C79.7652 65.0968 80.7525 64.2088 82.3317 63.8582L83.6324 69.7155L84.9331 75.5728C86.5844 75.2061 87.6401 74.2718 88.1703 73.6896C88.7187 73.0875 89.0454 72.4949 89.228 72.1155C89.5951 71.3527 89.7684 70.6313 89.8552 70.1161C89.9446 69.5862 90.0043 68.9051 89.9354 68.1516C89.9011 67.7758 89.82 67.214 89.5999 66.5757C89.4001 65.9962 88.9283 64.8902 87.8295 63.9217L83.8619 68.4225ZM83.6324 69.7155L82.3415 63.856C81.3394 64.0768 80.2221 64.403 79.1033 64.8766L81.442 70.402L83.7806 75.9275C84.0998 75.7923 84.4952 75.6693 84.9233 75.575L83.6324 69.7155ZM81.442 70.402L75.782 72.3933C76.0007 73.0148 76.3054 73.7355 76.7458 74.4645L81.8814 71.362L87.017 68.2594C87.0677 68.3434 87.0957 68.4022 87.1062 68.4252C87.1167 68.4483 87.1142 68.4459 87.1019 68.4107L81.442 70.402ZM81.8814 71.362L76.744 74.4615C75.797 72.8918 75.897 71.4189 75.961 70.8897C76.0425 70.2142 76.2416 69.6504 76.4691 69.199C76.674 68.7921 77.1055 68.0706 77.9386 67.413C78.7836 66.746 80.8272 65.6198 83.3902 66.4963L81.4488 72.1735L79.5074 77.8507C82.2103 78.775 84.3971 77.603 85.3733 76.8324C86.3377 76.0712 86.8884 75.1884 87.1857 74.5983C87.5054 73.9638 87.7697 73.1949 87.8744 72.3286C87.9614 71.6085 88.0423 69.9588 87.0188 68.2625L81.8814 71.362ZM81.4488 72.1735L83.4009 66.4999C83.0167 66.3677 81.6233 65.8498 80.0551 65.8248C77.9715 65.7917 75.7228 66.5901 74.0772 68.6008L78.7203 72.401L83.3634 76.2012C83.0009 76.6441 82.4496 77.1184 81.7003 77.4453C80.9693 77.7642 80.308 77.8304 79.8645 77.8233C79.4555 77.8168 79.1978 77.7477 79.1897 77.7457C79.1842 77.7443 79.2418 77.7593 79.4967 77.847L81.4488 72.1735ZM78.7203 72.401L73.4049 69.6178C70.5097 75.147 62.9384 77.7623 51.7642 77.7624L51.7642 83.7624L51.7642 89.7624C63.2232 89.7623 77.6673 87.3465 84.0357 75.1843L78.7203 72.401ZM51.7642 83.7624V77.7624C46.0409 77.7624 40.999 77.2879 37.0697 75.9397C33.2991 74.646 30.9715 72.7135 29.7298 69.8694L24.231 72.2702L18.7323 74.6709C21.6803 81.4233 27.1909 85.2369 33.1752 87.2902C39.0008 89.289 45.6305 89.7624 51.7642 89.7624V83.7624ZM24.231 72.2702L28.8095 68.3924C27.1004 66.3744 24.838 65.7135 22.94 65.7386C21.4871 65.7577 20.1545 66.1979 19.8075 66.3024L21.5377 72.0475L23.2678 77.7927C23.3955 77.7542 23.4795 77.7293 23.5501 77.7094C23.583 77.7002 23.6068 77.6938 23.6236 77.6894C23.6403 77.6851 23.6472 77.6835 23.6461 77.6838C23.6449 77.684 23.633 77.6868 23.6117 77.6908C23.5905 77.6949 23.5573 77.7007 23.5136 77.707C23.4289 77.719 23.2861 77.735 23.0982 77.7375C22.7173 77.7425 22.099 77.6918 21.391 77.4014C20.6517 77.0981 20.0658 76.6359 19.6525 76.1479L24.231 72.2702ZM21.5377 72.0475L19.8154 66.3C22.323 65.5486 24.3125 66.6484 25.2197 67.4183C26.0714 68.1411 26.4894 68.9273 26.6847 69.3757C26.901 69.8721 27.0706 70.4764 27.107 71.1794C27.1371 71.7616 27.1151 73.1954 26.1064 74.6576L21.1675 71.2506L16.2287 67.8437C15.1363 69.4272 15.0833 71.0319 15.1231 71.7995C15.169 72.6879 15.3888 73.4921 15.6832 74.1679C15.9566 74.7958 16.481 75.7409 17.4547 76.5673C18.4839 77.4408 20.6112 78.5887 23.2599 77.795L21.5377 72.0475ZM21.1675 71.2506L26.1069 74.6569C26.649 73.8708 27.0261 73.0761 27.2967 72.3902L21.7154 70.1881L16.1341 67.9861C16.1159 68.0322 16.1104 68.0403 16.1211 68.0193C16.1318 67.9985 16.1653 67.9355 16.2281 67.8444L21.1675 71.2506ZM21.7154 70.1881L24.406 64.8253C23.2634 64.252 22.1126 63.8439 21.0846 63.5588L19.481 69.3405L17.8774 75.1222C18.3096 75.2421 18.7078 75.392 19.0247 75.551L21.7154 70.1881ZM19.481 69.3405L21.099 63.5628C22.612 63.9865 23.5399 64.8871 23.99 65.4265C24.4529 65.9813 24.7014 66.4956 24.8231 66.7808C25.0669 67.3524 25.1406 67.8117 25.1687 68.0534C25.1984 68.3097 25.221 68.7104 25.1436 69.2262C25.1049 69.4842 25.0173 69.9346 24.7949 70.4714C24.5933 70.9582 24.1079 71.9386 23.0408 72.7812L19.3228 68.0719L15.6049 63.3627C14.4798 64.2509 13.9471 65.3027 13.7081 65.8799C13.4484 66.507 13.3333 67.0666 13.2764 67.4459C13.1626 68.2043 13.1859 68.8957 13.2487 69.4365C13.3097 69.9625 13.4487 70.6997 13.7849 71.4881C13.9528 71.8817 14.2543 72.4891 14.7764 73.1148C15.2857 73.7251 16.279 74.6746 17.863 75.1182L19.481 69.3405ZM19.3228 68.0719L23.0343 72.7862C24.0407 71.9939 24.8223 71.0846 25.4275 70.2095L20.4927 66.7965L15.558 63.3836C15.5222 63.4353 15.5046 63.4541 15.5093 63.4489C15.5143 63.4434 15.5468 63.4084 15.6113 63.3576L19.3228 68.0719ZM20.4927 66.7965L24.8831 62.707C24.2928 62.0732 23.6354 61.4259 22.9367 60.844L19.0972 65.4547L15.2578 70.0655C15.4591 70.2331 15.7451 70.5026 16.1024 70.8861L20.4927 66.7965ZM19.0972 65.4547L22.9491 60.8544C24.2089 61.9092 24.6368 63.1543 24.767 63.5784C24.933 64.119 24.974 64.5508 24.9876 64.7551C25.0158 65.1793 24.9774 65.4744 24.9543 65.6185C24.9319 65.7583 24.874 66.0684 24.7014 66.487C24.6186 66.6879 24.4279 67.1154 24.0655 67.6052C23.7709 68.0034 22.8922 69.0919 21.2463 69.6427L19.3423 63.9528L17.4384 58.2629C15.7226 58.837 14.7767 59.9841 14.419 60.4677C13.9935 61.0427 13.7436 61.5824 13.6071 61.9137C13.327 62.5931 13.1829 63.2373 13.1059 63.7172C13.0282 64.2014 12.9669 64.8427 13.014 65.5517C13.0371 65.8983 13.098 66.4571 13.2957 67.101C13.4576 67.6283 13.9291 68.9529 15.2454 70.0551L19.0972 65.4547ZM19.3423 63.9528L21.2217 69.6509C23.1692 69.0085 25.0755 67.8914 26.5072 66.0097C27.9024 64.1759 28.4412 62.1455 28.6413 60.3966L22.6802 59.7145L16.7191 59.0325C16.6717 59.4472 16.6264 59.1782 16.957 58.7437C17.1175 58.5328 17.2934 58.382 17.431 58.2908C17.5558 58.2081 17.5921 58.2121 17.463 58.2547L19.3423 63.9528ZM22.6802 59.7145L28.6601 60.2057C28.9479 56.7016 29.8054 53.5671 31.0702 50.83L25.6236 48.3131L20.177 45.7963C18.3088 49.8392 17.1009 54.3482 16.7004 59.2233L22.6802 59.7145ZM25.6236 48.3131L31.4944 47.0748C30.9079 44.2943 30.1011 41.4235 29.3279 38.7632C28.5313 36.0225 27.7882 33.5619 27.2073 31.2814C26.6171 28.9645 26.3138 27.2719 26.2719 26.1184C26.2214 24.7309 26.5921 25.4845 25.64 26.4412L21.3873 22.2086L17.1345 17.9761C14.4381 20.6854 14.1981 24.3075 14.2798 26.5545C14.37 29.0356 14.9418 31.7436 15.5787 34.2437C16.2248 36.7803 17.0609 39.5531 17.8048 42.1124C18.572 44.7522 19.267 47.2483 19.7528 49.5514L25.6236 48.3131Z" fill="white" mask="url(#path-2-outside-1_0_26)"/>
<path d="M21.3873 22.2086L17.1347 17.976L17.1345 17.9761L21.3873 22.2086ZM41.3804 33.1784L36.7805 37.0307L39.5737 40.366L43.612 38.7479L41.3804 33.1784ZM51.7642 31.1647L51.7647 25.1647H51.7646L51.7642 31.1647ZM63.0445 33.5407L60.6711 39.0513L64.791 40.8257L67.6585 37.3762L63.0445 33.5407ZM83.2271 22.3434L87.4797 18.1107L87.4794 18.1105L83.2271 22.3434ZM78.7623 49.5856L72.8647 48.4818L72.5432 50.1993L73.1942 51.8209L78.7623 49.5856ZM80.9908 60.3297L74.9949 60.5526L74.9992 60.6665L75.0077 60.7803L80.9908 60.3297ZM84.0347 64.487L86.2131 58.8964L86.2052 58.8933L86.1974 58.8903L84.0347 64.487ZM84.2056 66.0329L87.7671 70.8615L87.7819 70.8506L87.7967 70.8396L84.2056 66.0329ZM82.8277 67.196L78.7275 62.8155L75.0736 66.2356L77.7828 70.4438L82.8277 67.196ZM83.8619 68.4225L87.8295 63.9217L87.823 63.9159L87.8164 63.9101L83.8619 68.4225ZM83.6324 69.7155L84.9233 75.575L84.9331 75.5728L83.6324 69.7155ZM81.442 70.402L79.1033 64.8766L73.9107 67.0743L75.782 72.3933L81.442 70.402ZM81.8814 71.362L87.0188 68.2625L87.017 68.2594L81.8814 71.362ZM81.4488 72.1735L79.4967 77.8471L79.5074 77.8507L81.4488 72.1735ZM78.7203 72.401L74.0772 68.6008L73.6891 69.075L73.4049 69.6178L78.7203 72.401ZM51.7642 83.7624V89.7624H51.7642L51.7642 83.7624ZM24.231 72.2702L29.7298 69.8694L29.3779 69.0635L28.8095 68.3924L24.231 72.2702ZM21.5377 72.0475L23.2599 77.795L23.2678 77.7927L21.5377 72.0475ZM21.1675 71.2506L26.1064 74.6576L26.1069 74.6569L21.1675 71.2506ZM21.7154 70.1881L27.2967 72.3902L29.3105 67.2859L24.406 64.8253L21.7154 70.1881ZM19.481 69.3405L17.863 75.1182L17.8702 75.1202L17.8774 75.1222L19.481 69.3405ZM19.3228 68.0719L15.6113 63.3576L15.6049 63.3627L19.3228 68.0719ZM20.4927 66.7965L25.4275 70.2095L28.1734 66.2392L24.8831 62.707L20.4927 66.7965ZM19.0972 65.4547L15.2454 70.0551L15.2516 70.0603L15.2578 70.0655L19.0972 65.4547ZM19.3423 63.9528L17.463 58.2547L17.4507 58.2588L17.4384 58.2629L19.3423 63.9528ZM22.6802 59.7145L28.6413 60.3966L28.6522 60.3013L28.6601 60.2057L22.6802 59.7145ZM25.6236 48.3131L31.0702 50.83L31.9053 49.0228L31.4944 47.0748L25.6236 48.3131ZM21.3873 22.2086L25.6398 26.4413C25.2322 26.8509 24.6556 26.8015 24.8237 26.8316C25.288 26.9148 26.3045 27.3044 27.8653 28.3905C30.9222 30.5175 34.2642 34.0261 36.7805 37.0307L41.3804 33.1784L45.9804 29.326C43.2572 26.0744 39.1003 21.5888 34.7192 18.5404C32.5611 17.0387 29.8739 15.5453 26.9398 15.0197C23.7095 14.441 20.0399 15.0571 17.1347 17.976L21.3873 22.2086ZM41.3804 33.1784L43.612 38.7479C46.2072 37.7081 48.9702 37.1645 51.7638 37.1647L51.7642 31.1647L51.7646 25.1647C47.4103 25.1644 43.134 26.012 39.1488 27.6088L41.3804 33.1784ZM51.7642 31.1647L51.7638 37.1647C54.7026 37.1649 57.762 37.7984 60.6711 39.0513L63.0445 33.5407L65.4179 28.0301C61.0734 26.1589 56.4034 25.165 51.7647 25.1647L51.7642 31.1647ZM63.0445 33.5407L67.6585 37.3762C70.1502 34.3787 73.5304 30.7939 76.643 28.6C78.2334 27.479 79.2836 27.0619 79.7784 26.969C79.977 26.9316 79.3929 26.9964 78.9748 26.5763L83.2271 22.3434L87.4794 18.1105C84.5333 15.1508 80.8112 14.5649 77.5625 15.1753C74.6101 15.73 71.9038 17.259 69.7294 18.7917C65.3122 21.9052 61.1292 26.4588 58.4305 29.7052L63.0445 33.5407ZM83.2271 22.3434L78.9745 26.5761C77.9966 25.5936 78.4155 24.8316 78.337 26.3731C78.2725 27.6412 77.9191 29.4662 77.2751 31.9235C76.133 36.2816 73.8748 43.0849 72.8647 48.4818L78.7623 49.5856L84.6598 50.6894C85.5882 45.7294 87.3724 40.7302 88.8831 34.9656C89.5656 32.3616 90.1912 29.5453 90.3215 26.9828C90.438 24.6937 90.2677 20.9118 87.4797 18.1107L83.2271 22.3434ZM78.7623 49.5856L73.1942 51.8209C74.22 54.3762 74.8735 57.2849 74.9949 60.5526L80.9908 60.3297L86.9866 60.1069C86.8149 55.4855 85.881 51.213 84.3303 47.3503L78.7623 49.5856ZM80.9908 60.3297L75.0077 60.7803C75.1373 62.5006 75.5992 64.4975 76.9017 66.3388C78.2267 68.2118 80.0291 69.3715 81.8721 70.0837L84.0347 64.487L86.1974 58.8903C86.0778 58.8441 86.1154 58.8436 86.2358 58.9309C86.3677 59.0265 86.5402 59.1852 86.6984 59.4087C87.0306 59.8784 86.9975 60.1935 86.9738 59.8792L80.9908 60.3297ZM84.0347 64.487L81.8564 70.0776C80.2034 69.4335 79.3753 68.2667 79.112 67.8648C78.78 67.3581 78.6154 66.9242 78.5462 66.7257C78.4009 66.3095 78.3614 66.0087 78.3474 65.8785C78.3329 65.7443 78.3097 65.4585 78.3571 65.0464C78.3798 64.8491 78.4404 64.4223 78.631 63.8917C78.7769 63.4855 79.2689 62.2315 80.6146 61.2262L84.2056 66.0329L87.7967 70.8396C89.2017 69.7899 89.7415 68.4577 89.9245 67.9482C90.1522 67.3142 90.2393 66.759 90.2786 66.4168C90.3593 65.715 90.3303 65.074 90.2779 64.5889C90.2259 64.1078 90.1164 63.4605 89.8761 62.7721C89.7594 62.4375 89.541 61.8861 89.15 61.2891C88.8276 60.797 87.935 59.5673 86.2131 58.8964L84.0347 64.487ZM84.2056 66.0329L80.6442 61.2042C79.9622 61.7072 79.3144 62.2661 78.7275 62.8155L82.8277 67.196L86.9279 71.5764C87.2791 71.2477 87.5622 71.0127 87.7671 70.8615L84.2056 66.0329ZM82.8277 67.196L77.7828 70.4438C78.3164 71.2727 79.0082 72.1469 79.9074 72.9349L83.8619 68.4225L87.8164 63.9101C87.8743 63.9609 87.9043 63.9958 87.9104 64.0031C87.9162 64.01 87.9024 63.9943 87.8726 63.9481L82.8277 67.196ZM83.8619 68.4225L79.8942 72.9234C78.851 72.0038 78.4227 70.9729 78.2554 70.4877C78.0678 69.9436 78.0082 69.4951 77.9853 69.2447C77.9393 68.7419 77.982 68.3598 78.0223 68.1206C78.0602 67.8962 78.1525 67.4573 78.4147 66.9123C78.5449 66.6419 78.8133 66.1421 79.2983 65.6095C79.7652 65.0968 80.7525 64.2088 82.3317 63.8582L83.6324 69.7155L84.9331 75.5728C86.5844 75.2061 87.6401 74.2718 88.1703 73.6896C88.7187 73.0875 89.0454 72.4949 89.228 72.1155C89.5951 71.3527 89.7684 70.6313 89.8552 70.1161C89.9446 69.5862 90.0043 68.9051 89.9354 68.1516C89.9011 67.7758 89.82 67.214 89.5999 66.5757C89.4001 65.9962 88.9283 64.8902 87.8295 63.9217L83.8619 68.4225ZM83.6324 69.7155L82.3415 63.856C81.3394 64.0768 80.2221 64.403 79.1033 64.8766L81.442 70.402L83.7806 75.9275C84.0998 75.7923 84.4952 75.6693 84.9233 75.575L83.6324 69.7155ZM81.442 70.402L75.782 72.3933C76.0007 73.0148 76.3054 73.7355 76.7458 74.4645L81.8814 71.362L87.017 68.2594C87.0677 68.3434 87.0957 68.4022 87.1062 68.4252C87.1167 68.4483 87.1142 68.4459 87.1019 68.4107L81.442 70.402ZM81.8814 71.362L76.744 74.4615C75.797 72.8918 75.897 71.4189 75.961 70.8897C76.0425 70.2142 76.2416 69.6504 76.4691 69.199C76.674 68.7921 77.1055 68.0706 77.9386 67.413C78.7836 66.746 80.8272 65.6198 83.3902 66.4963L81.4488 72.1735L79.5074 77.8507C82.2103 78.775 84.3971 77.603 85.3733 76.8324C86.3377 76.0712 86.8884 75.1884 87.1857 74.5983C87.5054 73.9638 87.7697 73.1949 87.8744 72.3286C87.9614 71.6085 88.0423 69.9588 87.0188 68.2625L81.8814 71.362ZM81.4488 72.1735L83.4009 66.4999C83.0167 66.3677 81.6233 65.8498 80.0551 65.8248C77.9715 65.7917 75.7228 66.5901 74.0772 68.6008L78.7203 72.401L83.3634 76.2012C83.0009 76.6441 82.4496 77.1184 81.7003 77.4453C80.9693 77.7642 80.308 77.8304 79.8645 77.8233C79.4555 77.8168 79.1978 77.7477 79.1897 77.7457C79.1842 77.7443 79.2418 77.7593 79.4967 77.847L81.4488 72.1735ZM78.7203 72.401L73.4049 69.6178C70.5097 75.147 62.9384 77.7623 51.7642 77.7624L51.7642 83.7624L51.7642 89.7624C63.2232 89.7623 77.6673 87.3465 84.0357 75.1843L78.7203 72.401ZM51.7642 83.7624V77.7624C46.0409 77.7624 40.999 77.2879 37.0697 75.9397C33.2991 74.646 30.9715 72.7135 29.7298 69.8694L24.231 72.2702L18.7323 74.6709C21.6803 81.4233 27.1909 85.2369 33.1752 87.2902C39.0008 89.289 45.6305 89.7624 51.7642 89.7624V83.7624ZM24.231 72.2702L28.8095 68.3924C27.1004 66.3744 24.838 65.7135 22.94 65.7386C21.4871 65.7577 20.1545 66.1979 19.8075 66.3024L21.5377 72.0475L23.2678 77.7927C23.3955 77.7542 23.4795 77.7293 23.5501 77.7094C23.583 77.7002 23.6068 77.6938 23.6236 77.6894C23.6403 77.6851 23.6472 77.6835 23.6461 77.6838C23.6449 77.684 23.633 77.6868 23.6117 77.6908C23.5905 77.6949 23.5573 77.7007 23.5136 77.707C23.4289 77.719 23.2861 77.735 23.0982 77.7375C22.7173 77.7425 22.099 77.6918 21.391 77.4014C20.6517 77.0981 20.0658 76.6359 19.6525 76.1479L24.231 72.2702ZM21.5377 72.0475L19.8154 66.3C22.323 65.5486 24.3125 66.6484 25.2197 67.4183C26.0714 68.1411 26.4894 68.9273 26.6847 69.3757C26.901 69.8721 27.0706 70.4764 27.107 71.1794C27.1371 71.7616 27.1151 73.1954 26.1064 74.6576L21.1675 71.2506L16.2287 67.8437C15.1363 69.4272 15.0833 71.0319 15.1231 71.7995C15.169 72.6879 15.3888 73.4921 15.6832 74.1679C15.9566 74.7958 16.481 75.7409 17.4547 76.5673C18.4839 77.4408 20.6112 78.5887 23.2599 77.795L21.5377 72.0475ZM21.1675 71.2506L26.1069 74.6569C26.649 73.8708 27.0261 73.0761 27.2967 72.3902L21.7154 70.1881L16.1341 67.9861C16.1159 68.0322 16.1104 68.0403 16.1211 68.0193C16.1318 67.9985 16.1653 67.9355 16.2281 67.8444L21.1675 71.2506ZM21.7154 70.1881L24.406 64.8253C23.2634 64.252 22.1126 63.8439 21.0846 63.5588L19.481 69.3405L17.8774 75.1222C18.3096 75.2421 18.7078 75.392 19.0247 75.551L21.7154 70.1881ZM19.481 69.3405L21.099 63.5628C22.612 63.9865 23.5399 64.8871 23.99 65.4265C24.4529 65.9813 24.7014 66.4956 24.8231 66.7808C25.0669 67.3524 25.1406 67.8117 25.1687 68.0534C25.1984 68.3097 25.221 68.7104 25.1436 69.2262C25.1049 69.4842 25.0173 69.9346 24.7949 70.4714C24.5933 70.9582 24.1079 71.9386 23.0408 72.7812L19.3228 68.0719L15.6049 63.3627C14.4798 64.2509 13.9471 65.3027 13.7081 65.8799C13.4484 66.507 13.3333 67.0666 13.2764 67.4459C13.1626 68.2043 13.1859 68.8957 13.2487 69.4365C13.3097 69.9625 13.4487 70.6997 13.7849 71.4881C13.9528 71.8817 14.2543 72.4891 14.7764 73.1148C15.2857 73.7251 16.279 74.6746 17.863 75.1182L19.481 69.3405ZM19.3228 68.0719L23.0343 72.7862C24.0407 71.9939 24.8223 71.0846 25.4275 70.2095L20.4927 66.7965L15.558 63.3836C15.5222 63.4353 15.5046 63.4541 15.5093 63.4489C15.5143 63.4434 15.5468 63.4084 15.6113 63.3576L19.3228 68.0719ZM20.4927 66.7965L24.8831 62.707C24.2928 62.0732 23.6354 61.4259 22.9367 60.844L19.0972 65.4547L15.2578 70.0655C15.4591 70.2331 15.7451 70.5026 16.1024 70.8861L20.4927 66.7965ZM19.0972 65.4547L22.9491 60.8544C24.2089 61.9092 24.6368 63.1543 24.767 63.5784C24.933 64.119 24.974 64.5508 24.9876 64.7551C25.0158 65.1793 24.9774 65.4744 24.9543 65.6185C24.9319 65.7583 24.874 66.0684 24.7014 66.487C24.6186 66.6879 24.4279 67.1154 24.0655 67.6052C23.7709 68.0034 22.8922 69.0919 21.2463 69.6427L19.3423 63.9528L17.4384 58.2629C15.7226 58.837 14.7767 59.9841 14.419 60.4677C13.9935 61.0427 13.7436 61.5824 13.6071 61.9137C13.327 62.5931 13.1829 63.2373 13.1059 63.7172C13.0282 64.2014 12.9669 64.8427 13.014 65.5517C13.0371 65.8983 13.098 66.4571 13.2957 67.101C13.4576 67.6283 13.9291 68.9529 15.2454 70.0551L19.0972 65.4547ZM19.3423 63.9528L21.2217 69.6509C23.1692 69.0085 25.0755 67.8914 26.5072 66.0097C27.9024 64.1759 28.4412 62.1455 28.6413 60.3966L22.6802 59.7145L16.7191 59.0325C16.6717 59.4472 16.6264 59.1782 16.957 58.7437C17.1175 58.5328 17.2934 58.382 17.431 58.2908C17.5558 58.2081 17.5921 58.2121 17.463 58.2547L19.3423 63.9528ZM22.6802 59.7145L28.6601 60.2057C28.9479 56.7016 29.8054 53.5671 31.0702 50.83L25.6236 48.3131L20.177 45.7963C18.3088 49.8392 17.1009 54.3482 16.7004 59.2233L22.6802 59.7145ZM25.6236 48.3131L31.4944 47.0748C30.9079 44.2943 30.1011 41.4235 29.3279 38.7632C28.5313 36.0225 27.7882 33.5619 27.2073 31.2814C26.6171 28.9645 26.3138 27.2719 26.2719 26.1184C26.2214 24.7309 26.5921 25.4845 25.64 26.4412L21.3873 22.2086L17.1345 17.9761C14.4381 20.6854 14.1981 24.3075 14.2798 26.5545C14.37 29.0356 14.9418 31.7436 15.5787 34.2437C16.2248 36.7803 17.0609 39.5531 17.8048 42.1124C18.572 44.7522 19.267 47.2483 19.7528 49.5514L25.6236 48.3131Z" fill="url(#paint0_linear_0_26)" mask="url(#path-2-outside-1_0_26)"/>
<path d="M21.3871 22.2082C26.7233 16.847 37.4958 28.3192 42.3875 34.4048C44.1213 42.7424 31.0242 50.6639 26.4089 54.6683C26.4315 44.1508 17.1182 26.4971 21.3871 22.2082Z" fill="#F7CA93"/>
<path d="M22.8799 21.1368C16.2005 23.3798 25.0594 42.2752 28.4287 49.2175C35.2902 48.0064 38.6452 40.2103 38.9443 37.3496C37.983 31.9035 28.4756 19.2577 22.8799 21.1368Z" fill="url(#paint1_linear_0_26)"/>
<path d="M26.243 26.8766C22.6889 29.2193 30.5946 41.9301 34.3865 47.1606C39.8658 45.1597 40.9811 40.2211 40.8096 37.8192C39.2215 33.4701 30.3964 24.1388 26.243 26.8766Z" fill="url(#paint2_linear_0_26)"/>
<path d="M83.2054 22.2082C77.8693 16.847 67.0968 28.3192 62.205 34.4048C60.4712 42.7424 73.5684 50.6639 78.1837 54.6683C78.1611 44.1508 87.4743 26.4971 83.2054 22.2082Z" fill="#F7CA93"/>
<path d="M81.7127 21.1368C88.392 23.3798 79.5332 42.2752 76.1638 49.2175C69.3023 48.0064 65.9473 40.2103 65.6483 37.3496C66.6095 31.9035 76.117 19.2577 81.7127 21.1368Z" fill="url(#paint3_linear_0_26)"/>
<path d="M78.3496 26.8766C81.9036 29.2193 73.9979 41.9301 70.206 47.1606C64.7268 45.1597 63.6115 40.2211 63.7829 37.8192C65.3711 33.4701 74.1961 24.1388 78.3496 26.8766Z" fill="url(#paint4_linear_0_26)"/>
<path d="M34.3858 34.5272L37.2175 35.5575L32.085 39.8269L31.0533 37.5913C30.8271 37.1013 31.293 36.5768 31.8062 36.7436L34.3683 37.5763L33.5892 35.3097C33.4201 34.8177 33.8969 34.3493 34.3858 34.5272Z" fill="url(#paint5_linear_0_26)"/>
<path d="M69.8126 34.5272L66.9809 35.5575L72.1134 39.8269L73.1451 37.5913C73.3713 37.1013 72.9055 36.5768 72.3922 36.7436L69.8301 37.5763L70.6092 35.3097C70.7783 34.8177 70.3015 34.3493 69.8126 34.5272Z" fill="url(#paint6_linear_0_26)"/>
<g filter="url(#filter1_i_0_26)">
<path d="M52.0909 30.678C65.8584 30.679 80.6346 41.4048 81.3175 59.8479C81.4717 61.8798 82.3093 63.2063 84.3614 63.9993C84.6374 64.1061 84.77 65.3693 84.5323 65.5462C84.0889 65.8732 83.6234 66.2693 83.1544 66.7083C83.4532 67.1726 83.7948 67.5907 84.1886 67.9358C84.4105 68.1319 84.2479 69.1647 83.9591 69.2288C83.244 69.3863 82.4877 69.611 81.7686 69.9153C81.8923 70.2668 82.0359 70.5903 82.2081 70.8753C82.3606 71.1286 82.0561 71.7813 81.7765 71.6868C80.7279 71.326 79.7628 71.0395 79.047 71.9143C74.4152 80.76 63.4075 83.2757 52.0909 83.2757C40.2348 83.2757 28.7493 81.3801 24.5587 71.7854C23.8744 70.9755 22.9087 71.2463 21.8643 71.5608C21.5821 71.6454 21.3268 71.0066 21.4942 70.764C21.7063 70.4564 21.8858 70.0976 22.0421 69.7015C21.3123 69.3353 20.5378 69.0563 19.8077 68.8538C19.5238 68.7745 19.418 67.7679 19.6495 67.5852C20.0908 67.2378 20.4783 66.8022 20.8194 66.3089C20.3458 65.8004 19.8738 65.3427 19.4239 64.9681C19.1976 64.7788 19.39 63.5584 19.67 63.4661C21.8395 62.7505 22.7594 61.3914 23.0069 59.2278C24.4419 41.7586 37.8319 30.677 52.0909 30.678Z" fill="white"/>
</g>
<mask id="mask0_0_26" style="mask-type:alpha" maskUnits="userSpaceOnUse" x="18" y="30" width="68" height="54">
<path d="M51.8031 30.678C65.4606 30.6789 80.1012 41.1372 81.2523 59.1702L81.2777 59.0003C81.4425 61.4718 82.3409 62.9948 84.6908 63.7698C84.9731 63.8638 85.1667 65.0936 84.9389 65.2854C84.4847 65.6636 84.0078 66.1257 83.5297 66.639C83.874 67.137 84.2658 67.5763 84.7113 67.927C84.9445 68.112 84.8375 69.1268 84.5512 69.2073C83.8144 69.4117 83.0328 69.6933 82.2963 70.0628C82.454 70.4626 82.635 70.8247 82.849 71.135C83.0178 71.3799 82.7607 72.0241 82.476 71.9397C81.3241 71.5928 80.2635 71.2953 79.5688 72.4202C79.4698 72.5921 79.3816 72.7709 79.308 72.9573L79.2357 73.1565L79.5092 71.2561C75.1715 81.0274 63.6559 83.763 51.8031 83.763C39.8371 83.7629 28.2451 81.8493 24.016 72.1653C23.3256 71.3488 22.3519 71.6224 21.2982 71.9397C21.0132 72.0256 20.7552 71.3801 20.9242 71.135C21.1383 70.8247 21.3202 70.4627 21.4779 70.0628C20.7412 69.6931 19.9592 69.4118 19.2221 69.2073C18.9353 69.1277 18.829 68.1111 19.0629 67.927C19.5082 67.5764 19.8993 67.1368 20.2436 66.639C19.7654 66.1256 19.2886 65.6637 18.8344 65.2854C18.6059 65.0945 18.7998 63.8631 19.0824 63.7698C21.2775 63.0458 22.2046 61.6689 22.4516 59.4759C23.9067 41.8545 37.4167 30.6772 51.8031 30.678Z" fill="white"/>
</mask>
<g mask="url(#mask0_0_26)">
<path d="M52.0279 31.2909C45.0264 32.9082 58.987 51.8019 31.6509 55.3485L31.4927 55.369C26.3805 56.1471 23.7193 59.1811 23.0279 60.6005L21.7134 55.8896C2.13383 55.2219 24.1557 37.8138 37.438 27.1435L52.0279 31.2909Z" fill="url(#paint7_linear_0_26)"/>
<path d="M39.2698 45.2486C38.7333 45.3208 37.3693 45.7625 36.2054 46.9511" stroke="white" stroke-width="3.71206" stroke-linecap="round"/>
<path d="M52.1976 31.2909C59.1991 32.9082 45.2385 51.8019 72.5746 55.3485L72.7328 55.369C77.845 56.1471 80.5061 59.1811 81.1976 60.6005L82.5121 55.8896C102.092 55.2219 80.0698 37.8138 66.7875 27.1435L52.1976 31.2909Z" fill="url(#paint8_linear_0_26)"/>
<path d="M64.9556 45.2486C65.4922 45.3208 66.8562 45.7625 68.0201 46.9511" stroke="white" stroke-width="3.71206" stroke-linecap="round"/>
<path d="M38.1985 50.4926C39.5193 48.937 42.0726 48.2783 43.6282 49.5991C45.1836 50.9199 44.7976 53.4859 43.4769 55.0415C42.156 56.5967 39.5499 57.1863 37.9944 55.8657C36.4395 54.5449 36.8782 52.0481 38.1985 50.4926Z" fill="black"/>
<path d="M64.9391 50.4926C63.6183 48.937 61.065 48.2783 59.5094 49.5991C57.9541 50.9199 58.3401 53.4859 59.6608 55.0415C60.9817 56.5967 63.5878 57.1863 65.1432 55.8657C66.6982 54.5449 66.2595 52.0481 64.9391 50.4926Z" fill="black"/>
<circle cx="42.1897" cy="50.9174" r="0.852271" fill="white"/>
<circle cx="0.852271" cy="0.852271" r="0.852271" transform="matrix(-1 0 0 1 63.1868 50.0651)" fill="white"/>
</g>
<g filter="url(#filter2_f_0_26)">
<ellipse cx="48.0787" cy="66.325" rx="2.79671" ry="1.82642" fill="#FFCCB1"/>
</g>
<g filter="url(#filter3_f_0_26)">
<ellipse cx="56.1469" cy="66.325" rx="2.79671" ry="1.82642" fill="#FFCCB1"/>
</g>
<g filter="url(#filter4_d_0_26)">
<path d="M51.8005 64.4986C54.0309 64.4986 54.6113 65.7178 55.8085 66.2981C55.8088 66.3311 55.8085 66.4983 55.8085 66.5322C55.8085 70.1868 58.8614 75.1317 51.8005 75.1317C45.4335 75.1317 47.7924 70.1866 47.7924 66.5322C47.7924 66.4983 47.7921 66.3311 47.7924 66.2981C48.9904 65.7183 49.5693 64.4987 51.8005 64.4986Z" fill="url(#paint9_linear_0_26)"/>
</g>
<path d="M51.8005 64.4985C55.6335 64.4985 54.5844 68.2461 60.1882 65.6206C60.219 67.9812 58.5841 72.7026 51.8005 72.7026C45.017 72.7026 43.3821 67.9812 43.4128 65.6206C49.0166 68.246 47.9676 64.4986 51.8005 64.4985Z" fill="url(#paint10_linear_0_26)"/>
<path d="M51.8005 64.4986C54.0309 64.4986 54.6114 65.7178 55.8085 66.2981C55.8088 66.3311 55.8085 66.4983 55.8085 66.5322C55.8085 70.1868 58.8614 75.1317 51.8005 75.1317C45.4335 75.1317 47.7924 70.1866 47.7924 66.5322C47.7924 66.4983 47.7921 66.3311 47.7924 66.2981C48.9904 65.7183 49.5693 64.4987 51.8005 64.4986Z" fill="url(#paint11_linear_0_26)"/>
<mask id="mask1_0_26" style="mask-type:alpha" maskUnits="userSpaceOnUse" x="47" y="64" width="9" height="12">
<path d="M51.8005 64.4986C54.0309 64.4986 54.6089 65.8516 55.8061 66.4319C55.8064 66.4649 55.8085 66.4983 55.8085 66.5322C55.8085 70.1868 57.1858 75.1317 51.8005 75.1317C47.1452 75.1317 47.7924 70.1866 47.7924 66.5322C47.7924 66.4983 47.7933 66.4649 47.7936 66.4319C48.9916 65.852 49.5693 64.4987 51.8005 64.4986Z" fill="#FFB2B2"/>
</mask>
<g mask="url(#mask1_0_26)">
<path d="M51.8641 64.4986C51.8641 64.4986 51.4759 68.3456 52.2625 71.23" stroke="#FA8D8D" stroke-width="1.23733" stroke-linecap="round"/>
</g>
<path d="M55.3555 57.1529C56.2604 57.7586 56.7836 59.5725 55.8707 60.4862L55.4576 61.065C53.662 63.5811 49.9231 63.5811 48.1275 61.065L47.7144 60.4862C46.8015 59.5725 47.3907 57.6693 48.2296 57.1529L48.6328 56.9108C50.7244 55.6546 53.3598 55.7496 55.3555 57.1529Z" fill="black"/>
<g filter="url(#filter5_f_0_26)">
<path d="M51.8576 56.6846C53.1838 56.7609 54.4029 57.236 54.8468 57.4639C54.2674 57.2225 52.5886 57.2891 51.8576 57.2891C51.1456 57.2891 49.4474 57.2224 48.8683 57.4639C49.312 57.2361 50.5311 56.761 51.8576 56.6846Z" fill="white"/>
</g>
<path d="M41.7513 64.0478C42.5886 64.8432 44.7906 66.3838 46.9005 66.1828C49.0104 65.9819 50.9612 63.6711 51.6729 62.5408" stroke="black" stroke-width="2.4747" stroke-linecap="round" stroke-linejoin="round"/>
<path d="M62.2179 64.0478C61.3806 64.8432 59.1786 66.3838 57.0687 66.1828C54.9588 65.9819 53.008 63.6711 52.2963 62.5408" stroke="black" stroke-width="2.4747" stroke-linecap="round" stroke-linejoin="round"/>
<path d="M48.8683 73.7789C49.0947 74.1094 50.7818 74.7324 52.5789 74.5058C54.8253 74.2225 55.1894 73.8497 55.7118 72.8583" stroke="#FF6969" stroke-width="1.23735" stroke-linecap="round"/>
</g>
</g>
<defs>
<filter id="filter0_dddd_0_26" x="3.21582" y="12.6493" width="97.2201" height="110.806" filterUnits="userSpaceOnUse" color-interpolation-filters="sRGB">
<feFlood flood-opacity="0" result="BackgroundImageFix"/>
<feColorMatrix in="SourceAlpha" type="matrix" values="0 0 0 0 0 0 0 0 0 0 0 0 0 0 0 0 0 0 127 0" result="hardAlpha"/>
<feOffset dy="1.08686"/>
<feGaussianBlur stdDeviation="1.63029"/>
<feColorMatrix type="matrix" values="0 0 0 0 1 0 0 0 0 0.533333 0 0 0 0 0 0 0 0 0.2 0"/>
<feBlend mode="normal" in2="BackgroundImageFix" result="effect1_dropShadow_0_26"/>
<feColorMatrix in="SourceAlpha" type="matrix" values="0 0 0 0 0 0 0 0 0 0 0 0 0 0 0 0 0 0 127 0" result="hardAlpha"/>
<feOffset dy="6.52115"/>
<feGaussianBlur stdDeviation="3.26058"/>
<feColorMatrix type="matrix" values="0 0 0 0 1 0 0 0 0 0.533333 0 0 0 0 0 0 0 0 0.17 0"/>
<feBlend mode="normal" in2="effect1_dropShadow_0_26" result="effect2_dropShadow_0_26"/>
<feColorMatrix in="SourceAlpha" type="matrix" values="0 0 0 0 0 0 0 0 0 0 0 0 0 0 0 0 0 0 127 0" result="hardAlpha"/>
<feOffset dy="13.0423"/>
<feGaussianBlur stdDeviation="3.804"/>
<feColorMatrix type="matrix" values="0 0 0 0 1 0 0 0 0 0.533333 0 0 0 0 0 0 0 0 0.1 0"/>
<feBlend mode="normal" in2="effect2_dropShadow_0_26" result="effect3_dropShadow_0_26"/>
<feColorMatrix in="SourceAlpha" type="matrix" values="0 0 0 0 0 0 0 0 0 0 0 0 0 0 0 0 0 0 127 0" result="hardAlpha"/>
<feOffset dy="23.9109"/>
<feGaussianBlur stdDeviation="4.89086"/>
<feColorMatrix type="matrix" values="0 0 0 0 1 0 0 0 0 0.533333 0 0 0 0 0 0 0 0 0.03 0"/>
<feBlend mode="normal" in2="effect3_dropShadow_0_26" result="effect4_dropShadow_0_26"/>
<feBlend mode="normal" in="SourceGraphic" in2="effect4_dropShadow_0_26" result="shape"/>
</filter>
<filter id="filter1_i_0_26" x="19.3243" y="25.7286" width="65.3314" height="57.5471" filterUnits="userSpaceOnUse" color-interpolation-filters="sRGB">
<feFlood flood-opacity="0" result="BackgroundImageFix"/>
<feBlend mode="normal" in="SourceGraphic" in2="BackgroundImageFix" result="shape"/>
<feColorMatrix in="SourceAlpha" type="matrix" values="0 0 0 0 0 0 0 0 0 0 0 0 0 0 0 0 0 0 127 0" result="hardAlpha"/>
<feOffset dy="-4.94941"/>
<feGaussianBlur stdDeviation="8.35213"/>
<feComposite in2="hardAlpha" operator="arithmetic" k2="-1" k3="1"/>
<feColorMatrix type="matrix" values="0 0 0 0 1 0 0 0 0 0.94787 0 0 0 0 0.874887 0 0 0 1 0"/>
<feBlend mode="normal" in2="shape" result="effect1_innerShadow_0_26"/>
</filter>
<filter id="filter2_f_0_26" x="40.3325" y="59.5491" width="15.4922" height="13.5517" filterUnits="userSpaceOnUse" color-interpolation-filters="sRGB">
<feFlood flood-opacity="0" result="BackgroundImageFix"/>
<feBlend mode="normal" in="SourceGraphic" in2="BackgroundImageFix" result="shape"/>
<feGaussianBlur stdDeviation="2.4747" result="effect1_foregroundBlur_0_26"/>
</filter>
<filter id="filter3_f_0_26" x="48.4008" y="59.5491" width="15.4922" height="13.5517" filterUnits="userSpaceOnUse" color-interpolation-filters="sRGB">
<feFlood flood-opacity="0" result="BackgroundImageFix"/>
<feBlend mode="normal" in="SourceGraphic" in2="BackgroundImageFix" result="shape"/>
<feGaussianBlur stdDeviation="2.4747" result="effect1_foregroundBlur_0_26"/>
</filter>
<filter id="filter4_d_0_26" x="44.8904" y="63.2612" width="14.0493" height="15.5825" filterUnits="userSpaceOnUse" color-interpolation-filters="sRGB">
<feFlood flood-opacity="0" result="BackgroundImageFix"/>
<feColorMatrix in="SourceAlpha" type="matrix" values="0 0 0 0 0 0 0 0 0 0 0 0 0 0 0 0 0 0 127 0" result="hardAlpha"/>
<feOffset dy="1.23735"/>
<feGaussianBlur stdDeviation="1.23735"/>
<feComposite in2="hardAlpha" operator="out"/>
<feColorMatrix type="matrix" values="0 0 0 0 0.985896 0 0 0 0 0.82331 0 0 0 0 0.570397 0 0 0 1 0"/>
<feBlend mode="normal" in2="BackgroundImageFix" result="effect1_dropShadow_0_26"/>
<feBlend mode="normal" in="SourceGraphic" in2="effect1_dropShadow_0_26" result="shape"/>
</filter>
<filter id="filter5_f_0_26" x="47.631" y="55.4473" width="8.45322" height="3.254" filterUnits="userSpaceOnUse" color-interpolation-filters="sRGB">
<feFlood flood-opacity="0" result="BackgroundImageFix"/>
<feBlend mode="normal" in="SourceGraphic" in2="BackgroundImageFix" result="shape"/>
<feGaussianBlur stdDeviation="0.618676" result="effect1_foregroundBlur_0_26"/>
</filter>
<linearGradient id="paint0_linear_0_26" x1="51.6723" y1="20.82" x2="51.6723" y2="83.7621" gradientUnits="userSpaceOnUse">
<stop stop-color="#D3823C"/>
<stop offset="1" stop-color="#FFB26F"/>
</linearGradient>
<linearGradient id="paint1_linear_0_26" x1="27.5833" y1="20.2668" x2="32.5643" y2="48.4876" gradientUnits="userSpaceOnUse">
<stop stop-color="#FFFAEE"/>
<stop offset="1" stop-color="#FFF2C3"/>
</linearGradient>
<linearGradient id="paint2_linear_0_26" x1="41.1982" y1="29.9131" x2="34.5467" y2="43.1442" gradientUnits="userSpaceOnUse">
<stop stop-color="#FF9292"/>
<stop offset="1" stop-color="#FFB9B9"/>
</linearGradient>
<linearGradient id="paint3_linear_0_26" x1="77.0093" y1="20.2668" x2="72.0282" y2="48.4876" gradientUnits="userSpaceOnUse">
<stop stop-color="#FFFAEE"/>
<stop offset="1" stop-color="#FFF2C3"/>
</linearGradient>
<linearGradient id="paint4_linear_0_26" x1="63.3944" y1="29.9131" x2="70.0459" y2="43.1442" gradientUnits="userSpaceOnUse">
<stop stop-color="#FF9292"/>
<stop offset="1" stop-color="#FFB9B9"/>
</linearGradient>
<linearGradient id="paint5_linear_0_26" x1="35.3019" y1="36.2932" x2="33.9578" y2="34.9156" gradientUnits="userSpaceOnUse">
<stop stop-color="#F7CA93"/>
<stop offset="1" stop-color="white"/>
</linearGradient>
<linearGradient id="paint6_linear_0_26" x1="68.8965" y1="36.2932" x2="70.2406" y2="34.9156" gradientUnits="userSpaceOnUse">
<stop stop-color="#F7CA93"/>
<stop offset="1" stop-color="white"/>
</linearGradient>
<linearGradient id="paint7_linear_0_26" x1="32.4097" y1="25.3321" x2="32.4097" y2="60.6005" gradientUnits="userSpaceOnUse">
<stop stop-color="#FFD8A9"/>
<stop offset="1" stop-color="#FDC594"/>
</linearGradient>
<linearGradient id="paint8_linear_0_26" x1="71.8158" y1="25.3321" x2="71.8158" y2="60.6005" gradientUnits="userSpaceOnUse">
<stop stop-color="#FFD8A9"/>
<stop offset="1" stop-color="#FDC594"/>
</linearGradient>
<linearGradient id="paint9_linear_0_26" x1="51.864" y1="64.4986" x2="51.864" y2="75.1317" gradientUnits="userSpaceOnUse">
<stop stop-color="#FF6969"/>
<stop offset="1" stop-color="#FFA4A4"/>
</linearGradient>
<linearGradient id="paint10_linear_0_26" x1="51.8005" y1="64.4985" x2="51.8005" y2="72.7026" gradientUnits="userSpaceOnUse">
<stop/>
<stop offset="1" stop-color="#666666"/>
</linearGradient>
<linearGradient id="paint11_linear_0_26" x1="51.864" y1="64.4986" x2="51.864" y2="75.1317" gradientUnits="userSpaceOnUse">
<stop stop-color="#FF6969"/>
<stop offset="1" stop-color="#FFA4A4"/>
</linearGradient>
<clipPath id="clip0_0_26">
<rect width="104" height="104" fill="white"/>
</clipPath>
</defs>
</svg>
